<?xml version="1.0" standalone="no"?>
<!DOCTYPE svg PUBLIC "-//W3C//DTD SVG 20010904//EN"
 "http://www.w3.org/TR/2001/REC-SVG-20010904/DTD/svg10.dtd">
<svg version="1.0" xmlns="http://www.w3.org/2000/svg"
 width="1000.000000pt" height="180.000000pt" viewBox="0 0 1000.000000 180.000000"
 preserveAspectRatio="xMidYMid meet">
<metadata>
Created by potrace 1.15, written by Peter Selinger 2001-2017
</metadata>
<g transform="translate(0.000000,180.000000) scale(0.100000,-0.100000)"
fill="#000000" stroke="none">
<path d="M2685 1304 c-14 -31 -25 -58 -25 -60 0 -2 -25 -61 -56 -131 -30 -70
-67 -155 -81 -188 -13 -33 -31 -73 -38 -90 -98 -224 -103 -245 -64 -265 26
-14 152 -12 171 3 8 6 29 46 46 87 33 82 121 293 146 353 17 38 29 46 43 25
25 -41 229 -544 223 -551 -4 -4 -151 -8 -326 -8 -175 0 -335 -3 -354 -7 -31
-6 -39 -15 -67 -72 -37 -74 -40 -92 -17 -114 14 -14 75 -16 523 -16 561 0 550
-1 538 60 -4 18 -27 78 -51 134 -25 55 -70 162 -101 236 -31 74 -62 149 -70
165 -24 55 -132 309 -165 390 -18 44 -37 86 -43 93 -6 8 -41 12 -108 12 l-99
0 -25 -56z"/>
<path d="M3500 1341 c-5 -11 -10 -49 -10 -85 0 -98 -6 -96 290 -96 236 0 247
-1 296 -24 60 -28 117 -90 152 -166 33 -73 36 -197 7 -284 -22 -65 -82 -140
-143 -178 -36 -22 -47 -23 -305 -28 -313 -6 -297 0 -297 -110 0 -103 -8 -100
272 -100 201 0 246 3 312 20 191 48 323 184 372 380 23 93 15 272 -17 355 -63
165 -185 278 -346 320 -44 11 -119 15 -315 15 -244 0 -258 -1 -268 -19z"/>
<path d="M4839 1341 c-105 -33 -184 -107 -211 -195 -5 -17 -9 -61 -9 -98 -1
-166 89 -240 387 -317 160 -41 243 -72 269 -101 20 -22 22 -68 6 -99 -14 -25
-103 -71 -138 -71 -39 0 -53 -26 -53 -99 0 -88 16 -106 87 -95 66 10 142 37
192 68 148 94 174 327 49 442 -68 63 -128 88 -333 140 -213 54 -265 81 -265
141 0 39 31 74 83 93 82 30 82 29 85 109 2 45 -2 78 -9 87 -15 19 -72 17 -140
-5z"/>
<path d="M5106 1345 c-12 -12 -16 -35 -16 -85 0 -75 10 -94 58 -105 43 -9 99
-60 113 -103 18 -58 25 -62 103 -62 98 0 111 11 103 80 -17 146 -135 256 -303
284 -32 6 -45 3 -58 -9z"/>
<path d="M5701 1351 c-23 -15 -28 -134 -7 -166 l16 -25 385 0 c335 0 386 2
399 16 11 11 16 35 16 80 0 113 37 104 -408 104 -217 0 -393 -4 -401 -9z"/>
<path d="M6990 1341 c-201 -64 -330 -241 -346 -478 -18 -246 91 -460 279 -553
75 -37 140 -49 162 -30 11 9 15 33 15 90 0 86 -4 93 -76 124 -57 25 -118 89
-150 161 -23 50 -28 74 -28 150 -1 157 58 263 183 329 l71 37 0 79 c0 58 -4
83 -16 94 -19 20 -25 19 -94 -3z"/>
<path d="M7214 1348 c-11 -17 -13 -129 -3 -155 5 -15 24 -26 62 -37 63 -18
135 -77 173 -142 l26 -45 92 3 91 3 3 33 c8 79 -108 233 -219 292 -97 51 -208
75 -225 48z"/>
<path d="M5696 898 c-18 -25 -21 -113 -6 -152 l10 -26 354 0 c195 0 361 3 370
6 13 5 16 23 16 88 0 50 -5 87 -12 94 -9 9 -104 12 -364 12 l-353 0 -15 -22z"/>
<path d="M4594 636 c-14 -23 -14 -30 1 -88 34 -133 111 -214 249 -261 58 -20
117 -22 134 -5 13 13 17 146 4 164 -4 5 -29 18 -56 28 -66 25 -113 69 -128
119 -16 59 -30 67 -115 67 -66 0 -74 -2 -89 -24z"/>
<path d="M7482 653 c-7 -3 -28 -29 -47 -59 -41 -64 -95 -105 -168 -128 -61
-19 -67 -29 -67 -106 0 -55 19 -94 47 -98 35 -5 171 46 233 88 70 47 110 95
150 174 35 69 38 111 11 126 -20 10 -135 13 -159 3z"/>
<path d="M5737 473 c-47 -5 -60 -33 -55 -117 3 -43 10 -62 24 -73 29 -21 780
-15 794 7 5 8 10 47 10 87 0 109 22 103 -390 101 -190 -1 -362 -3 -383 -5z"/>
</g>
</svg>
